<svg xmlns="http://www.w3.org/2000/svg" viewBox="0 0 205 57" width="205" height="57">
	<style>
		tspan { white-space:pre }
		.shp0 { fill: #ffffff;stroke: #eaeaea;stroke-width: 1.5 } 
		.shp1 { fill: none;stroke: #000000;stroke-linecap:square;stroke-width: 6 } 
		.shp2 { fill: none;stroke: #000000;stroke-width: 6 } 
		.shp3 { fill: #000000 } 
		.shp4 { fill: none;stroke: #f9ac00;stroke-width: 6 } 
	</style>
	<g id="Layer">
		<path id="Layer" class="shp0" d="M7.7 0.75L197.55 0.75C201.25 0.75 204.25 2.76 204.25 5.25L204.25 51.75C204.25 54.24 201.25 56.25 197.55 56.25L7.7 56.25C4 56.25 1 54.24 1 51.75L1 5.25C1 2.76 4 0.75 7.7 0.75Z" />
		<g id="Layer">
			<path id="Layer" class="shp1" d="M137.5 36L137.5 13.84" />
			<path id="Layer" class="shp2" d="M124 27.24L137.61 40.85L151.03 27.44" />
		</g>
		<path id="Layer" class="shp2" d="M83.45 43.93L83.45 18.96L97.3 32.81L111.23 18.88L111.23 43.75" />
		<g id="Folder 1 copy">
			<path id="Shape 1 copy 5" class="shp3" d="M56 12L62 12L62 44L56 44L56 12Z" />
			<path id="Shape 1 copy 6" class="shp3" d="M32 12L38 12L38 44L32 44L32 12Z" />
			<path id="Shape 1 copy 7" class="shp3" d="M15 12L21 12L21 44L15 44L15 12Z" />
			<path id="Shape 1 copy 8" class="shp3" d="M15 25L38 25L38 31L15 31L15 25Z" />
			<path id="Shape 1 copy 9" class="shp3" d="M46 12L72 12L72 18L46 18L46 12Z" />
		</g>
		<g id="Layer">
			<path id="Layer" class="shp4" d="M189.44 41.27L160.17 12" />
			<path id="Layer" class="shp4" d="M160.56 41.27L189.83 12" />
		</g>
	</g>
</svg>